<?xml version="1.0" encoding="UTF-8" standalone="no"?>
<svg
   xmlns:dc="http://purl.org/dc/elements/1.1/"
   xmlns:cc="http://creativecommons.org/ns#"
   xmlns:rdf="http://www.w3.org/1999/02/22-rdf-syntax-ns#"
   xmlns:svg="http://www.w3.org/2000/svg"
   xmlns="http://www.w3.org/2000/svg"
   viewBox="0 0 378.89575 173.88391"
   height="173.88391"
   width="378.89575"
   xml:space="preserve"
   id="svg2"
   version="1.1"><metadata
     id="metadata8"><rdf:RDF><cc:Work
         rdf:about=""><dc:format>image/svg+xml</dc:format><dc:type
           rdf:resource="http://purl.org/dc/dcmitype/StillImage" /><dc:title></dc:title></cc:Work></rdf:RDF></metadata><defs
     id="defs6" /><g
     transform="matrix(1.3333333,0,0,-1.3333333,26.565104,132.55213)"
     id="g10"><g
       transform="scale(0.1)"
       id="g12"><g
         style="fill:#ffffff;fill-opacity:1"
         id="g938"><path
           d="M 108.48,356.199 H 5.51172 v 307.192 c 0,0.429 0,2.3 0,2.3 H 174.34 c 45.82,0 85.308,-29.652 98.16,-68.941 11.949,-36.41 1.762,-75.98 -25.199,-104.109 3.597,-9.762 7.109,-17.301 10.429,-26.012 7.469,-17.231 14.301,-34.449 21.758,-51.488 L 304.02,356.199 H 199.609 c 0,-0.039 -0.859,2.5 -1.679,3.512 -4.141,9.148 -7.891,18.91 -12.032,28.051 l -25.117,59.566 c -9.961,24.063 -19.922,46.801 -29.883,70.902 12.422,0.348 21.723,-1.992 33.711,3.52 8.442,4.141 21.211,14.488 21.52,34.25 -0.309,9.809 -3.008,17.23 -9.488,24.93 -6.52,7.179 -15.942,12.5 -28.2,12.691 h -40 V 356.199"
           style="fill:#ffffff;fill-opacity:1;fill-rule:evenodd;stroke:none"
           id="path14" /><path
           d="M 1183.95,665.648 V 356.16 h -102.97 v 126.211 h -72.07 V 356.16 c -18.68,0 -38.828,0.199 -57.5,0 h -45.469 v 237.891 h -71.992 c 0,-2.301 0,-4.571 0,-7.5 V 356.16 H 730.98 V 594.051 H 658.32 V 356.16 H 552.27 c -18.481,44.649 -38.008,89.649 -56.059,134.102 -2.07,9.297 -4.141,18.668 -6.832,27.808 V 356.16 H 383.09 C 362.031,405.141 341.801,453.148 320.781,502.879 313.48,520.07 307.539,534.09 300,552.02 l -1.02,2.339 -16.359,38.403 -23.402,54.847 c -2.11,6.211 -5.43,11.832 -7.5,18.039 H 357.77 c 21.8,-52.929 43.789,-105.269 66.64,-157.339 l 0.629,-1.25 c -0.859,6.011 -2.738,13.711 -3.75,19.492 v 92.379 c 0.191,14.73 0,31.57 0,46.718 h 106.289 c 1.332,-3.398 2.07,-5.187 3.121,-7.886 12.422,-29.301 24.262,-58.364 36.723,-87.422 l 27.808,-63.281 c -0.621,6.64 -2.07,13.05 -2.89,19.492 v 139.058 h 416.57 v -111.64 c 0,0 3.32,0 5,0 h 67.11 v 111.64 c 0,0 35.86,0 53.71,0 h 49.25"
           style="fill:#ffffff;fill-opacity:1;fill-rule:nonzero;stroke:none"
           id="path16" /></g><g
         style="fill:#8cdbff;fill-opacity:1"
         id="g956"><path
           d="m 1186.13,355.961 h 64.77 l 14.22,65.199 h 81.99 l 14.22,-65.199 h 64.72 l -81.56,308.129 h -76.79 z m 119.53,254.609 h 0.86 l 29.81,-138.511 h -60.43 l 29.76,138.511"
           style="fill:#8cdbff;fill-opacity:1;fill-rule:evenodd;stroke:none"
           id="path18" /><path
           d="m 1391.52,355.961 h 64.73 l 14.26,65.199 h 81.99 l 14.22,-65.199 h 64.73 l -81.57,308.129 h -76.79 z m 119.53,254.609 h 0.86 l 29.77,-138.511 h -60.39 l 29.76,138.511"
           style="fill:#8cdbff;fill-opacity:1;fill-rule:evenodd;stroke:none"
           id="path20" /><path
           d="m 1816.56,560.109 c 0,44.879 -6.48,110.032 -95.39,110.032 -93.2,0 -104.84,-66.442 -104.84,-160.11 0,-93.64 11.64,-160.082 104.84,-160.082 81.56,0 97.97,57.379 97.97,123.832 h -62.15 c 0,-66.453 -16.37,-78.09 -38.83,-78.09 -26.75,0 -39.68,16.84 -39.68,110.039 0,87.149 7.34,118.668 38.82,118.668 28.05,0 37.11,-19.41 37.11,-64.289 h 62.15"
           style="fill:#8cdbff;fill-opacity:1;fill-rule:nonzero;stroke:none"
           id="path22" /><path
           d="m 1828.59,355.961 h 62.15 v 136.84 h 72.5 v -136.84 h 62.15 V 664.09 h -62.15 V 546.281 h -72.5 V 664.09 h -62.15 V 355.961"
           style="fill:#8cdbff;fill-opacity:1;fill-rule:nonzero;stroke:none"
           id="path24" /><path
           d="M 2042.62,664.09 V 356 h 176.48 v 50.898 h -114.33 v 82.852 h 103.55 v 50.941 h -103.55 v 72.5 h 110.03 v 50.899 h -172.18"
           style="fill:#8cdbff;fill-opacity:1;fill-rule:nonzero;stroke:none"
           id="path26" /><path
           d="M 2232.97,664.09 V 356 h 56.91 v 215.75 h 0.86 L 2366.72,356 h 70.74 v 308.09 h -56.95 V 453.07 h -0.86 l -75.08,211.02 h -71.6"
           style="fill:#8cdbff;fill-opacity:1;fill-rule:nonzero;stroke:none"
           id="path28" /><path
           d="m 1632.62,282.41 h 29.37 c 28.05,0 43.13,-14.219 43.13,-42.699 0,-33.242 -16.84,-46.172 -46.6,-46.172 h -25.9 z M 1570.51,20.0703 h 62.15 V 150.379 h 33.24 c 25,0 35.78,-14.688 36.64,-38.828 l 1.76,-59.1408 c 0.43,-12.0704 1.72,-23.711 7.73,-32.3789 h 67.35 v 2.6093 c -11.65,6.0196 -13.4,22.8594 -13.83,55.2383 -0.86,65.1601 -7.35,88.4411 -49.61,94.0621 v 0.86 c 34.96,7.34 51.36,34.961 51.36,75.937 0,52.653 -31.09,79.41 -81.99,79.41 h -114.8 V 20.0313"
           style="fill:#8cdbff;fill-opacity:1;fill-rule:evenodd;stroke:none"
           id="path30" /><path
           d="M 656.25,328.148 V 113.27 c 0,-82.4614 47.891,-99.2583 98.398,-99.2583 50.473,0 98.364,20.6992 98.364,99.2583 V 328.148 H 790.898 V 113.27 c 0,-30.6606 -7.347,-53.52 -36.25,-53.52 -28.91,0 -36.25,22.8594 -36.25,53.52 V 328.148 H 656.25"
           style="fill:#8cdbff;fill-opacity:1;fill-rule:nonzero;stroke:none"
           id="path32" /><path
           d="M 866.332,328.148 V 20.0703 H 923.32 V 235.809 h 0.86 l 75.94,-215.7387 h 70.78 V 328.148 h -56.99 V 117.141 h -0.86 l -75.081,211.007 h -71.637"
           style="fill:#8cdbff;fill-opacity:1;fill-rule:nonzero;stroke:none"
           id="path34" /><path
           d="m 1086.88,20.0586 h 62.1094 v 308.09 H 1086.88 Z"
           style="fill:#8cdbff;fill-opacity:1;fill-rule:nonzero;stroke:none"
           id="path36" /><path
           d="m 1153.24,328.148 70.78,-308.0777 h 79.85 l 70.78,308.0777 h -64.34 l -45.7,-227.847 h -1.33 l -43.55,227.847 h -66.49"
           style="fill:#8cdbff;fill-opacity:1;fill-rule:nonzero;stroke:none"
           id="path38" /><path
           d="M 1380.16,328.148 V 20.0703 h 176.48 V 70.9609 H 1442.3 V 153.82 h 103.6 v 50.93 h -103.6 v 72.5 h 110.04 v 50.941 h -172.18"
           style="fill:#8cdbff;fill-opacity:1;fill-rule:nonzero;stroke:none"
           id="path40" /><path
           d="m 1772.42,116.281 v -12.5 c 0,-56.9919 27.62,-89.7693 97.97,-89.7693 67.31,0 106.99,29.2969 106.99,94.4883 0,37.539 -12.07,61.289 -58.67,81.57 l -47.89,20.7 c -26.33,11.21 -31.91,22.89 -31.91,41.871 0,18.129 7.3,35.82 35.39,35.82 23.71,0 33.63,-16.832 33.63,-45.742 h 59.57 v 8.64 c 0,59.102 -40.16,82.852 -95.35,82.852 -58.71,0 -95.39,-30.633 -95.39,-90.633 0,-51.367 25.47,-74.219 80.7,-93.199 40.98,-14.258 55.24,-24.609 55.24,-52.6602 0,-25.8985 -18.13,-37.9688 -37.11,-37.9688 -32.82,0 -41.02,18.5586 -41.02,47.461 v 9.07 h -62.15"
           style="fill:#8cdbff;fill-opacity:1;fill-rule:nonzero;stroke:none"
           id="path42" /><path
           d="m 1985.51,20.0586 h 62.1484 v 308.09 H 1985.51 Z"
           style="fill:#8cdbff;fill-opacity:1;fill-rule:nonzero;stroke:none"
           id="path44" /><path
           d="M 2055.82,328.148 V 277.25 h 67.3 V 20.0313 h 62.15 V 277.25 h 67.31 v 50.898 h -196.76"
           style="fill:#8cdbff;fill-opacity:1;fill-rule:nonzero;stroke:none"
           id="path46" /><path
           d="M 2215.94,328.148 2295.78,141.32 V 20.0703 h 62.15 V 141.32 l 79.8,186.828 h -67.3 l -43.16,-119.097 h -0.86 l -40.55,119.097 h -69.92"
           style="fill:#8cdbff;fill-opacity:1;fill-rule:nonzero;stroke:none"
           id="path48" /></g></g></g></svg>