<?xml version="1.0" encoding="UTF-8" standalone="no"?>
<svg
   xmlns:dc="http://purl.org/dc/elements/1.1/"
   xmlns:cc="http://creativecommons.org/ns#"
   xmlns:rdf="http://www.w3.org/1999/02/22-rdf-syntax-ns#"
   xmlns:svg="http://www.w3.org/2000/svg"
   xmlns="http://www.w3.org/2000/svg"
   height="134.89375"
   width="200.89999"
   xml:space="preserve"
   enable-background="new 0 0 257 169"
   viewBox="0 0 200.89999 134.89375"
   y="0px"
   x="0px"
   id="Layer_1"
   version="1.1"><metadata
     id="metadata59"><rdf:RDF><cc:Work
         rdf:about=""><dc:format>image/svg+xml</dc:format><dc:type
           rdf:resource="http://purl.org/dc/dcmitype/StillImage" /><dc:title></dc:title></cc:Work></rdf:RDF></metadata><defs
     id="defs57" /><g
     transform="translate(-35,-6.10625)"
     style="fill:#000000;fill-opacity:1"
     id="g52"><path
       style="clip-rule:evenodd;fill:#000000;fill-opacity:1;fill-rule:evenodd"
       id="path2"
       d="m 151.3,94.3 c 1,0.1 1.2,0.4 1.2,0.7 v 18.6 c 0,0.4 -0.1,0.6 -1.2,0.7 v 0.5 h 8.3 v -0.5 c -0.9,-0.1 -1.2,-0.4 -1.2,-0.7 V 95 c 0,-0.4 0.2,-0.6 1.2,-0.7 v -0.5 h -8.3 z" /><path
       style="clip-rule:evenodd;fill:#000000;fill-opacity:1;fill-rule:evenodd"
       id="path4"
       d="m 180.5,99.5 c 0,-1 0.6,-2 4.1,-2.2 3.7,-0.1 6.5,0.9 7.3,1.5 l 0.6,0.4 1.6,-5.3 c -0.5,0 -0.1,-0.1 -0.8,-0.1 -1.1,0 -4.9,-1.2 -9.7,-0.9 -6,0.3 -8.6,3.4 -8.6,7.4 0,7.8 14.5,4.2 14.4,7.6 -0.1,1.8 -1.4,3 -5.4,3.1 -4.2,0.1 -6.7,-0.9 -7.6,-1.6 -0.4,-0.3 -1.2,-0.8 -1.1,-0.9 l -0.8,0.1 1.4,5.8 c 1.6,0.3 5.3,1 9.6,0.8 5.9,-0.1 9.7,-4 9.7,-7.5 0.1,-9.1 -14.7,-4.7 -14.7,-8.2 z" /><path
       style="clip-rule:evenodd;fill:#000000;fill-opacity:1;fill-rule:evenodd"
       id="path6"
       d="m 129.4,94.3 c 0.5,0 1,0.2 1,0.7 v 14.4 C 125,100 123.3,96.9 122.6,94.3 v -0.5 h -1.7 -8.1 v 0.5 c 1.1,0.1 1.2,0.4 1.2,0.7 v 18.6 c 0,0.4 -0.1,0.6 -1.2,0.7 v 0.5 h 7.3 v -0.5 c -1,-0.1 -1.2,-0.4 -1.2,-0.7 V 98.9 c 0.7,1.1 1.3,2.1 1.9,3 5,7.8 6.5,10.7 7,12.5 v 0.5 h 8.1 v -0.5 c -0.4,0 -0.4,-0.4 -0.4,-0.7 V 95 c 0,-0.4 0.1,-0.6 1.2,-0.7 v -0.5 h -7.3 z" /><path
       style="clip-rule:evenodd;fill:#000000;fill-opacity:1;fill-rule:evenodd"
       id="path8"
       d="m 90.2,94.3 c 1,0.1 1.4,0.4 1.4,0.7 v 11.7 c 0,3.1 -1.4,4.4 -4.6,4.4 -3.2,0 -5.1,-1.3 -5.1,-4.4 V 95 c 0,-0.4 0.6,-0.6 1.5,-0.7 v -0.5 h -8.2 v 0.5 c 1,0.1 1.1,0.4 1.1,0.7 v 10.7 c 0,7.1 4.5,9.4 10.6,9.4 6.2,0 10.4,-2.4 10.4,-9.4 V 95 c 0,-0.4 0.2,-0.6 1.2,-0.7 v -0.5 h -8.3 z" /><path
       style="clip-rule:evenodd;fill:#000000;fill-opacity:1;fill-rule:evenodd"
       id="path10"
       d="m 132.3,19.5 v 0 0 c -0.7,1.1 -1.3,2 -1.8,3 -1.2,2.2 -1.9,4.2 -3,7 -0.5,-0.1 -1,-0.4 -1.4,-0.5 -0.5,-0.2 -0.9,-0.4 -1.4,-0.6 -0.6,-0.3 -1.2,-0.6 -1.7,-0.9 0.6,-0.6 1.2,-1.2 1.7,-1.9 0.5,-0.4 0.9,-0.9 1.4,-1.3 1.4,-1.3 2.9,-2.5 4.5,-3.5 0.4,-0.5 1,-0.9 1.7,-1.3 z M 143,10.8 c 0.8,0.5 0.7,1.5 -0.1,1.8 0.5,1.1 -0.4,2.1 -1.4,1.7 -0.1,0.1 -0.1,0.1 -0.3,0.2 -0.6,0.2 -1.3,-0.6 -0.9,-1.6 -0.6,0.3 -1.4,-0.9 -0.7,-1.7 -0.8,-0.1 -1,-1.4 -0.3,-1.9 -0.7,-0.2 -0.6,-1.7 0.5,-1.7 -0.3,-1.3 0.8,-1.7 1.4,-1.1 0.2,0.1 0.4,0.4 0.4,0.9 0.6,-0.7 1.9,0.5 1.1,1.4 0.9,-0.1 1.2,1.7 0.3,2 z m 7.8,-0.6 c 0.5,1.2 -0.4,2.4 -1.7,1.9 0,0.8 -0.3,1.4 -1,1.3 -0.3,0 -0.6,-0.1 -0.9,-0.2 0,1.2 -1.7,1.3 -1.9,0.4 -1.4,1.3 -3,3.2 -4,5.6 -1.2,2.9 -1.6,6.5 0,10.7 v 0 0 c -1.7,0.5 -3.5,0.7 -5.3,0.8 -0.8,-6 1.3,-11 5.3,-15 1,-1 2.1,-1.9 3.2,-2.7 -0.7,-0.5 -0.7,-2 0.4,-2.2 -0.4,-1.2 0.4,-2.3 1.6,-1.7 -0.5,-1.3 0.1,-2.2 1.7,-1.5 v 0 c 0,-0.1 0,-0.1 0,-0.1 0,-0.1 0,-0.2 0,-0.3 0.1,-0.8 1.2,-1.4 2.2,-0.6 1.1,-1.4 3.2,0.5 1.2,1.7 1.4,0.6 0.5,2.4 -0.8,1.9 z m -6.5,6.2 c -0.6,-1 0.6,-1.8 1.5,-1.3 -0.1,-0.7 1.2,-1 1.6,-0.2 0.2,-0.3 0.4,-0.5 0.7,-0.6 0.5,-0.1 1.1,0.2 1.2,0.9 0.4,-1.1 2,-0.4 1.7,0.6 1.3,0.1 1.5,1.7 0,1.9 0.3,1.1 -1,1.4 -1.7,0.6 -0.1,0.6 -0.6,1 -1.2,0.9 -0.3,-0.1 -0.6,-0.4 -0.8,-0.8 -0.9,0.6 -1.4,0.5 -1.7,-0.4 -1,0.3 -1.8,-0.5 -1.3,-1.6 z m -15.4,13.5 c 0.5,-1.2 1,-2.4 1.6,-3.7 1.2,-2.4 2.4,-4.8 4,-7 v 11.4 c -1.4,-0.1 -2.7,-0.2 -4,-0.4 -0.6,-0.1 -1.1,-0.1 -1.6,-0.3 z M 126,22.2 c -0.5,0.4 -0.9,0.8 -1.4,1.2 -1.1,1 -2.1,2 -3.1,3.2 -0.9,-0.6 -1.9,-1.4 -2.7,-2.2 -0.5,-0.4 -0.9,-0.8 -1.4,-1.3 0.4,-0.2 0.9,-0.5 1.4,-0.8 1.9,-1 3.8,-1.9 5.8,-2.6 0.5,-0.1 0.9,-0.3 1.4,-0.4 1.4,-0.4 3,-0.7 4.5,-0.9 0.4,-0.1 0.8,-0.1 1.2,-0.1 -0.4,0.2 -0.8,0.4 -1.2,0.6 -1.6,1 -3.1,2.1 -4.5,3.3 z m 18.4,2.2 c 0.4,0.4 0.9,0.8 1.2,1.2 0.6,0.6 1.2,1.2 1.7,1.8 -0.5,0.3 -1.1,0.6 -1.7,0.9 -0.4,0.2 -0.8,0.4 -1.2,0.6 -0.3,0.1 -0.6,0.2 -0.9,0.4 -0.2,0.1 -0.5,0.1 -0.7,0.3 -0.9,-3.6 -0.8,-5.3 -0.7,-7 0.5,0.4 1,0.7 1.4,1.2 0.3,0.1 0.6,0.4 0.9,0.6 z m 4.3,2.1 c -0.9,-1.1 -2,-2.1 -3.1,-3.1 -0.4,-0.4 -0.8,-0.7 -1.2,-1.1 -0.3,-0.2 -0.6,-0.5 -0.9,-0.7 -0.4,-0.3 -0.7,-0.6 -1.2,-0.9 l 1,-1.7 c 0.1,0 0.1,0.1 0.1,0.1 0.3,0.1 0.6,0.1 0.9,0.2 0.4,0.1 0.9,0.2 1.2,0.4 2,0.6 3.9,1.5 5.8,2.5 0.5,0.3 1,0.6 1.4,0.9 -0.4,0.5 -0.9,0.9 -1.4,1.4 -0.8,0.7 -1.6,1.5 -2.6,2 z" /><path
       style="clip-rule:evenodd;fill:#000000;fill-opacity:1;fill-rule:evenodd"
       id="path12"
       d="m 156.6,63.8 v 0 c -0.1,-0.1 0,-0.1 0,-0.2 1.1,-3.5 1.7,-7.1 1.7,-10.9 h 1.4 9.2 c -0.1,6.2 -2,12 -5.1,16.9 -1.3,-1.3 -2.7,-2.5 -4.1,-3.6 -1,-0.7 -2,-1.5 -3.1,-2.2 z" /><path
       style="clip-rule:evenodd;fill:#000000;fill-opacity:1;fill-rule:evenodd"
       id="path14"
       d="m 121.2,77.1 c 1.1,1.3 2.2,2.4 3.4,3.6 0.5,0.4 0.9,0.8 1.4,1.2 1.4,1.2 2.9,2.2 4.5,3.2 0.1,0 0.1,0.1 0.1,0.1 0,0 -0.1,0 -0.1,0 -1.5,-0.2 -3,-0.5 -4.5,-0.9 -0.5,-0.1 -0.9,-0.3 -1.4,-0.4 -2,-0.7 -4,-1.6 -5.8,-2.6 -0.5,-0.3 -1,-0.6 -1.4,-0.9 0.4,-0.5 0.9,-0.9 1.4,-1.4 0.7,-0.6 1.5,-1.3 2.4,-1.9 z" /><path
       style="clip-rule:evenodd;fill:#000000;fill-opacity:1;fill-rule:evenodd"
       id="path16"
       d="m 126,79.9 c -0.5,-0.4 -0.9,-0.9 -1.4,-1.3 -0.7,-0.7 -1.4,-1.5 -2.1,-2.2 0.7,-0.4 1.4,-0.8 2.1,-1.1 0.5,-0.2 0.9,-0.4 1.4,-0.6 0.4,-0.1 0.8,-0.3 1.2,-0.4 l 3.2,6.6 1.8,3.7 c -0.6,-0.4 -1.2,-0.7 -1.8,-1.1 -1.5,-1.2 -3,-2.3 -4.4,-3.6 z" /><path
       style="clip-rule:evenodd;fill:#000000;fill-opacity:1;fill-rule:evenodd"
       id="path18"
       d="m 143.6,82.5 c 0.3,-0.2 0.6,-0.5 0.9,-0.7 0.4,-0.4 0.9,-0.7 1.2,-1.1 1.2,-1.1 2.3,-2.2 3.3,-3.4 0.9,0.6 1.7,1.2 2.4,1.9 0.4,0.4 0.9,0.9 1.4,1.4 -0.5,0.3 -1,0.6 -1.4,0.8 -1.9,1 -3.7,1.9 -5.8,2.5 -0.4,0.1 -0.8,0.2 -1.2,0.4 -0.3,0.1 -0.6,0.1 -0.9,0.2 -0.9,0.2 -1.9,0.4 -3,0.6 -0.4,0 -0.7,0.1 -1.1,0.1 0.4,-0.2 0.7,-0.4 1.1,-0.7 1.1,-0.5 2.1,-1.2 3.1,-2 z" /><path
       style="clip-rule:evenodd;fill:#000000;fill-opacity:1;fill-rule:evenodd"
       id="path20"
       d="m 128.7,73.8 c 0.6,-0.1 1.2,-0.3 1.8,-0.4 1.3,-0.3 2.6,-0.4 4,-0.4 v 12 c -1.5,-2.2 -2.8,-4.5 -4,-7 -0.7,-1.4 -1.3,-2.8 -1.8,-4.2 z" /><path
       style="clip-rule:evenodd;fill:#000000;fill-opacity:1;fill-rule:evenodd"
       id="path22"
       d="m 143.2,74.4 c 0.1,0.1 0.2,0.1 0.4,0.1 0.3,0.1 0.6,0.2 0.9,0.4 0.4,0.1 0.9,0.4 1.2,0.5 0.7,0.4 1.4,0.7 1.9,1.1 l -1.9,1.7 -1.2,1 -0.9,0.7 -3,2.4 -2.3,1.9 v -0.1 c 0.9,-1.3 1.6,-2.7 2.3,-4.1 0.9,-1.8 1.8,-3.6 2.6,-5.6 z" /><path
       style="clip-rule:evenodd;fill:#000000;fill-opacity:1;fill-rule:evenodd"
       id="path24"
       d="m 136.1,52.8 h 4.5 l 3,-0.1 h 0.9 1.2 0.1 c 0,0.7 0,1.4 -0.1,2.2 -0.1,1.4 -0.1,2.8 -0.3,4.2 -0.3,-0.1 -0.6,-0.1 -0.9,-0.2 -0.3,-0.1 -0.6,-0.1 -0.9,-0.2 -0.9,-0.2 -1.9,-0.4 -3,-0.5 -1.5,-0.2 -3,-0.4 -4.6,-0.4 z" /><path
       style="clip-rule:evenodd;fill:#000000;fill-opacity:1;fill-rule:evenodd"
       id="path26"
       d="m 111.9,52.7 c 0.1,3.7 0.6,7.3 1.7,10.7 0.1,0.1 0.1,0.3 0.1,0.4 0,0.1 -0.1,0.1 -0.1,0.1 -1,0.7 -2,1.4 -3,2.2 -1.4,1.1 -2.8,2.2 -4,3.5 -3.1,-4.9 -5,-10.7 -5.1,-16.9 h 9.1 z" /><path
       style="clip-rule:evenodd;fill:#000000;fill-opacity:1;fill-rule:evenodd"
       id="path28"
       d="m 113.6,55.4 c -0.1,-0.9 -0.1,-1.7 -0.1,-2.7 h 0.1 5.1 4.4 c 0.1,2.3 0.2,4.5 0.5,6.8 -1.7,0.5 -3.3,1.1 -4.9,1.8 -1.2,0.5 -2.4,1.2 -3.6,1.8 -0.7,-2.4 -1.2,-5 -1.5,-7.7 z" /><path
       style="clip-rule:evenodd;fill:#000000;fill-opacity:1;fill-rule:evenodd"
       id="path30"
       d="m 156.6,55.8 c -0.3,2.4 -0.7,4.9 -1.4,7.2 -1.2,-0.7 -2.4,-1.4 -3.7,-1.9 -1.5,-0.6 -3,-1.2 -4.6,-1.7 0.3,-2.2 0.4,-4.5 0.4,-6.8 h 4.2 5.2 0.2 c -0.2,1.2 -0.2,2.2 -0.3,3.2 z" /><path
       style="clip-rule:evenodd;fill:#000000;fill-opacity:1;fill-rule:evenodd"
       id="path32"
       d="m 126,58.9 c -0.4,0.1 -0.6,0.1 -0.9,0.2 -0.3,-2.1 -0.4,-4.2 -0.4,-6.3 h 1.4 4.5 l 3.9,0.1 0.1,5 c -1.4,0 -2.7,0.1 -4,0.3 -1.7,0 -3.2,0.3 -4.6,0.7 z" /><path
       style="clip-rule:evenodd;fill:#000000;fill-opacity:1;fill-rule:evenodd"
       id="path34"
       d="m 148.7,75.3 c -1,-0.6 -1.9,-1.1 -3,-1.6 -0.4,-0.1 -0.8,-0.4 -1.2,-0.5 -0.2,-0.1 -0.4,-0.1 -0.7,-0.3 0.3,-0.7 0.5,-1.4 0.7,-2.2 0.5,-1.5 0.9,-3 1.2,-4.5 0.4,-1.7 0.7,-3.4 0.9,-5.1 1.7,0.5 3.2,1.2 4.8,1.8 1.1,0.5 2.2,1.1 3.2,1.7 -0.8,2.4 -1.9,4.6 -3.2,6.8 -0.9,1.4 -1.7,2.6 -2.7,3.9 z" /><path
       style="clip-rule:evenodd;fill:#000000;fill-opacity:1;fill-rule:evenodd"
       id="path36"
       d="m 142.3,72.5 c -0.5,-0.1 -1.1,-0.3 -1.7,-0.4 -1.4,-0.4 -3,-0.6 -4.6,-0.6 v -12 c 1.6,0 3.1,0.1 4.6,0.4 1,0.1 2,0.3 3,0.5 0.3,0.1 0.6,0.1 0.9,0.2 0.3,0.1 0.5,0.1 0.7,0.1 -0.2,1.4 -0.4,2.8 -0.7,4.2 -0.2,1.2 -0.5,2.3 -0.9,3.5 -0.4,1.3 -0.8,2.7 -1.3,4.1 z" /><path
       style="clip-rule:evenodd;fill:#000000;fill-opacity:1;fill-rule:evenodd"
       id="path38"
       d="m 113.6,65.9 c 0.3,-0.1 0.5,-0.3 0.7,-0.4 1.1,3 2.6,5.9 4.4,8.5 0.4,0.6 0.9,1.4 1.4,1.9 -0.5,0.4 -1,0.7 -1.4,1.1 -1,0.8 -1.9,1.7 -2.8,2.5 -0.8,-0.6 -1.5,-1.2 -2.3,-1.7 -1,-0.9 -2.1,-1.9 -3,-2.8 -1.2,-1.2 -2.2,-2.5 -3.2,-4 1,-1 2.1,-1.9 3.2,-2.9 1,-0.7 2,-1.5 3,-2.2 z" /><path
       style="clip-rule:evenodd;fill:#000000;fill-opacity:1;fill-rule:evenodd"
       id="path40"
       d="m 150,76.1 c 0.5,-0.6 0.9,-1.2 1.4,-1.9 1.9,-2.7 3.4,-5.6 4.5,-8.8 0.2,0.1 0.4,0.2 0.6,0.4 1.1,0.7 2.2,1.5 3.2,2.3 1.2,0.9 2.2,1.9 3.2,3 -1,1.4 -2.1,2.7 -3.2,4 -1,1 -2.1,2 -3.2,2.9 -0.8,0.6 -1.6,1.3 -2.4,1.9 -0.9,-0.9 -1.8,-1.8 -2.7,-2.6 -0.5,-0.5 -0.9,-0.8 -1.4,-1.2 z" /><path
       style="clip-rule:evenodd;fill:#000000;fill-opacity:1;fill-rule:evenodd"
       id="path42"
       d="m 128.1,72.3 c -0.9,-2.5 -1.7,-5 -2.2,-7.6 -0.3,-1.3 -0.6,-2.7 -0.7,-4 0.2,0 0.4,-0.1 0.7,-0.1 1.4,-0.4 3,-0.6 4.5,-0.9 1.3,-0.1 2.6,-0.2 4,-0.2 v 12 c -1.4,0 -2.7,0.1 -4,0.4 -0.7,0 -1.5,0.2 -2.3,0.4 z" /><path
       style="clip-rule:evenodd;fill:#000000;fill-opacity:1;fill-rule:evenodd"
       id="path44"
       d="m 126.7,72.8 c -0.3,0.1 -0.5,0.1 -0.7,0.2 -0.5,0.2 -0.9,0.4 -1.4,0.6 -1.1,0.4 -2.1,1 -3.1,1.6 -1,-1.3 -1.9,-2.7 -2.7,-4 -1.2,-2 -2.2,-4.2 -3,-6.4 0.9,-0.6 1.9,-1.2 3,-1.6 1.7,-0.8 3.3,-1.4 5,-2 0.2,1.4 0.5,2.9 0.8,4.3 0.4,1.7 0.9,3.5 1.4,5.2 0.2,0.6 0.4,1.3 0.7,2.1 z" /><path
       style="clip-rule:evenodd;fill:#000000;fill-opacity:1;fill-rule:evenodd"
       id="path46"
       d="m 140.6,73.6 c 0.4,0.1 0.8,0.2 1.2,0.3 -0.4,0.9 -0.7,1.8 -1.2,2.6 -1.3,3 -2.9,5.8 -4.6,8.5 V 73 c 1.6,0 3.2,0.3 4.6,0.6 z" /><path
       style="clip-rule:evenodd;fill:#000000;fill-opacity:1;fill-rule:evenodd"
       id="path48"
       d="m 130.5,51.2 h -4.5 -1.4 c 0.1,-2.2 0.2,-4.3 0.4,-6.4 0.3,0.1 0.6,0.1 0.9,0.2 1.4,0.3 3,0.6 4.5,0.7 1.3,0.2 2.6,0.3 4,0.3 l -0.1,5.2 z m -4.5,-8 c -0.2,0 -0.4,-0.1 -0.6,-0.1 0.1,-1.2 0.4,-2.4 0.6,-3.5 0.6,-2.8 1.4,-5.5 2.3,-8.1 0.7,0.1 1.4,0.3 2.2,0.4 1.3,0.2 2.6,0.4 4,0.4 v 12.1 c -1.4,-0.1 -2.7,-0.1 -4,-0.3 -1.6,-0.2 -3.1,-0.5 -4.5,-0.9 z m 20.4,-0.5 c -0.2,-1.4 -0.4,-2.8 -0.8,-4.2 -0.4,-1.5 -0.7,-3 -1.2,-4.5 -0.3,-0.9 -0.6,-1.7 -0.9,-2.5 0,-0.2 -0.1,-0.4 -0.1,-0.6 l 0.1,-0.1 c 0.3,-0.1 0.6,-0.2 0.9,-0.3 0.4,-0.1 0.9,-0.4 1.2,-0.5 0.9,-0.4 1.9,-0.9 2.8,-1.4 1.1,1.3 2,2.7 3,4.2 1.2,2 2.2,4.2 3.1,6.5 -1,0.6 -2.1,1.1 -3.1,1.6 -1.6,0.7 -3.2,1.3 -5,1.8 z m -2,-2.8 c 0.2,1.1 0.4,2.2 0.6,3.2 -0.1,0.1 -0.4,0.1 -0.6,0.1 -0.3,0.1 -0.6,0.1 -0.9,0.2 -0.9,0.2 -1.9,0.4 -3,0.5 -1.5,0.3 -3,0.4 -4.6,0.4 v -12 c 1.6,-0.1 3.2,-0.3 4.6,-0.6 0.4,-0.1 0.9,-0.2 1.4,-0.4 0.6,1.7 1.2,3.4 1.6,5.1 0.4,1.2 0.7,2.4 0.9,3.5 z m -25.7,0.8 c -1,-0.5 -1.9,-1 -3,-1.6 0.8,-2.1 1.8,-4.1 3,-6 0.9,-1.6 1.9,-3 3.1,-4.4 0.9,0.5 1.8,1 2.7,1.4 0.5,0.2 0.9,0.4 1.4,0.6 0.3,0.1 0.6,0.2 0.9,0.4 -0.3,0.9 -0.6,1.7 -0.9,2.6 -0.6,1.7 -1,3.5 -1.4,5.3 -0.2,1.2 -0.5,2.5 -0.7,3.8 -1.7,-0.6 -3.4,-1.4 -5.1,-2.1 z m 1.7,-12.9 c -0.6,0.7 -1.2,1.6 -1.7,2.4 -1.7,2.5 -3.2,5.3 -4.2,8.1 -0.3,-0.1 -0.6,-0.4 -0.9,-0.5 -1,-0.7 -2,-1.4 -3,-2.2 -1.1,-0.9 -2.2,-1.9 -3.2,-2.9 0.9,-1.4 2,-2.7 3.2,-4 0.9,-1 2,-2 3,-2.9 0.8,-0.6 1.6,-1.2 2.4,-1.8 0.8,0.9 1.7,1.7 2.7,2.4 0.6,0.6 1.2,1 1.7,1.4 z m 36.2,20.5 c 0.1,0.9 0.1,1.9 0.1,2.8 h -0.1 -5.2 -4.2 c -0.1,-2.3 -0.2,-4.6 -0.5,-6.8 1.6,-0.4 3.2,-1 4.7,-1.7 1.2,-0.6 2.4,-1.2 3.6,-1.8 0.8,2.4 1.3,5 1.6,7.5 z m -43,-8.5 c 0.1,0.1 0.2,0.1 0.3,0.1 -0.1,0.3 -0.1,0.5 -0.3,0.8 -1,3.3 -1.6,6.8 -1.7,10.4 h -1.4 -9.1 c 0.1,-6.3 1.9,-12.1 5,-17.1 1.3,1.3 2.7,2.4 4.1,3.6 1.1,0.8 2.1,1.5 3.1,2.2 z m 0,9 c 0.3,-2.8 0.8,-5.5 1.7,-8.1 1.1,0.6 2.2,1.2 3.5,1.8 1.6,0.7 3.2,1.3 4.9,1.8 -0.3,2.2 -0.4,4.5 -0.5,6.8 h -4.4 -5.1 -0.1 c -0.1,-0.7 -0.1,-1.5 0,-2.3 z M 136,46 c 1.6,0 3.1,-0.1 4.6,-0.4 1,-0.1 2,-0.3 3,-0.5 0.3,0 0.6,-0.1 0.9,-0.1 0.3,-0.1 0.6,-0.1 0.8,-0.2 0.2,1.7 0.4,3.4 0.4,5.1 0.1,0.4 0.1,0.9 0.1,1.3 h -0.1 -1.2 -0.9 -3 -4.6 V 46 Z m 22.3,5.2 c -0.1,-3.7 -0.7,-7.2 -1.7,-10.6 -0.1,-0.2 -0.1,-0.4 -0.2,-0.6 0.1,0 0.1,-0.1 0.2,-0.1 1.1,-0.7 2.2,-1.4 3.2,-2.2 1.4,-1.1 2.9,-2.3 4.2,-3.6 3.1,5 4.9,10.8 5,17.1 h -9.2 z M 156.6,38 c -0.3,0.1 -0.5,0.3 -0.7,0.4 -1.2,-3 -2.7,-5.8 -4.5,-8.5 -0.6,-0.7 -1.1,-1.4 -1.7,-2.2 0.6,-0.4 1.1,-0.8 1.7,-1.2 1,-0.8 1.9,-1.7 2.8,-2.6 0.8,0.6 1.6,1.2 2.4,1.8 1.1,0.9 2.2,1.9 3.2,3 1.2,1.2 2.2,2.6 3.2,4 -1,1 -2.1,2 -3.2,3 -1.1,0.8 -2.1,1.6 -3.2,2.3 z" /><path
       style="fill:#000000;fill-opacity:1"
       id="path50"
       d="m 42.3,128 v -1.5 H 35 v 1.5 h 2.8 v 9.4 h 1.6 V 128 Z m 5.5,4.4 v 5 h 1.6 v -5.1 c 0,-1.4 -0.7,-2.3 -2.5,-2.3 -0.7,0 -1.4,0.2 -1.9,0.5 v -4 h -1.6 v 10.9 H 45 v -5.6 c 0.4,-0.2 0.9,-0.4 1.7,-0.4 0.7,0 1.1,0.3 1.1,1 z m 2.8,1.4 c 0,2.4 0.9,3.8 3.3,3.8 0.8,0 1.7,-0.1 2.6,-0.5 v -1.4 c -0.6,0.3 -1.4,0.4 -2.3,0.4 -1.5,0 -1.9,-0.7 -1.9,-1.8 h 4.5 c 0,-0.2 0,-0.5 0,-0.7 0,-2 -0.4,-3.7 -3,-3.7 -2.3,0.1 -3.2,1.5 -3.2,3.9 z m 3.2,-2.4 c 1.3,0 1.3,0.9 1.3,1.9 h -2.9 c 0.1,-1.1 0.4,-1.9 1.6,-1.9 z m 11,6.2 c 1.5,0 4,-0.6 4,-3.6 v -7.5 h -1.6 v 7.3 c 0,2 -1.4,2.3 -2.3,2.3 -0.9,0 -2.3,-0.2 -2.3,-2.3 v -7.3 H 61 v 7.5 c -0.1,3 2.3,3.6 3.8,3.6 z m 11.5,-0.2 v -5.1 c 0,-1.4 -0.7,-2.3 -2.5,-2.3 -0.8,0 -1.6,0.2 -2.4,0.8 l -0.3,-0.6 h -1 v 7.3 h 1.6 v -5.6 c 0.4,-0.2 0.9,-0.4 1.7,-0.4 0.8,0 1.1,0.3 1.1,1.1 v 5 h 1.8 z m 3.5,0.1 c 0.2,0 0.3,0 0.3,0 v -1.3 c -0.5,0 -0.6,-0.1 -0.6,-0.6 v -5.5 h -1.6 v 5.5 c -0.1,1.3 0.5,1.9 1.9,1.9 z M 77.6,128 c 0,0.6 0.5,1.1 1.1,1.1 0.6,0 1.1,-0.5 1.1,-1.1 0,-0.6 -0.5,-1.1 -1.1,-1.1 -0.6,0 -1.1,0.5 -1.1,1.1 z m 3.1,2.1 2.8,7.4 h 1.3 l 2.8,-7.4 h -1.8 l -1.7,5.3 -1.7,-5.3 z m 7.2,3.7 c 0,2.4 0.9,3.8 3.3,3.8 0.8,0 1.7,-0.1 2.6,-0.5 v -1.4 c -0.6,0.3 -1.4,0.4 -2.3,0.4 -1.5,0 -1.9,-0.7 -1.9,-1.8 h 4.5 c 0,-0.2 0,-0.5 0,-0.7 0,-2 -0.4,-3.7 -3,-3.7 -2.3,0.1 -3.2,1.5 -3.2,3.9 z m 3.2,-2.4 c 1.3,0 1.3,0.9 1.3,1.9 h -2.9 c 0.1,-1.1 0.5,-1.9 1.6,-1.9 z m 8.6,-1.3 c -0.2,0 -0.5,-0.1 -0.8,-0.1 -0.9,0 -1.8,0.3 -2.3,0.8 l -0.3,-0.6 h -1 v 7.3 H 97 v -5.6 c 0.4,-0.2 1,-0.4 1.9,-0.4 0.3,0 0.6,0 0.8,0.1 z m 2.3,2.1 c 0,-0.7 0.5,-0.9 1.4,-0.9 0.9,0 1.6,0.2 2.2,0.4 v -1.4 c -0.6,-0.2 -1.3,-0.4 -2.3,-0.4 -2.1,0 -3,1.1 -3,2.3 0,1.2 0.5,1.9 2.7,2.1 1,0.1 1.2,0.4 1.2,0.9 0,0.6 -0.6,0.9 -1.7,0.9 -0.9,0 -1.7,-0.2 -2.2,-0.4 v 1.4 c 0.5,0.2 1.4,0.4 2.4,0.4 2.3,0 3.1,-1.1 3.1,-2.3 0,-1.4 -0.6,-2 -2.7,-2.2 -0.9,0 -1.1,-0.3 -1.1,-0.8 z m 7.2,5.3 c 0.2,0 0.3,0 0.3,0 v -1.3 c -0.5,0 -0.6,-0.1 -0.6,-0.6 v -5.5 h -1.6 v 5.5 c 0,1.3 0.6,1.9 1.9,1.9 z m -2.1,-9.5 c 0,0.6 0.5,1.1 1.1,1.1 0.6,0 1.1,-0.5 1.1,-1.1 0,-0.6 -0.5,-1.1 -1.1,-1.1 -0.6,0 -1.1,0.5 -1.1,1.1 z m 7.8,8.1 c -0.2,0 -0.4,0.1 -0.6,0.1 -0.8,0 -1.2,-0.3 -1.2,-1.1 v -3.6 h 2 v -1.4 h -2 V 128 l -1.6,0.5 v 1.7 l -1.3,0.4 v 1 h 1.3 v 3.8 c 0,1.6 0.9,2.3 2.6,2.3 0.2,0 0.7,0 0.9,-0.1 v -1.5 z m 0.6,-6 2.7,7 -1.8,3.9 h 1.8 l 4.2,-10.9 h -1.8 l -1.6,5.2 -1.6,-5.2 z M 126,132 c 0,3.6 1.3,5.6 4.5,5.6 1.3,0 2,-0.2 2.6,-0.5 v -1.6 c -0.8,0.3 -1.5,0.5 -2.5,0.5 -2.1,0 -2.9,-1.4 -2.9,-4.1 0,-2.7 0.8,-4.1 2.9,-4.1 1,0 1.6,0.2 2.5,0.5 v -1.6 c -0.5,-0.2 -1.3,-0.5 -2.6,-0.5 -3.3,0.1 -4.5,2.2 -4.5,5.8 z m 8.2,1.8 c 0,2.4 0.9,3.8 3.3,3.8 0.8,0 1.7,-0.1 2.6,-0.5 v -1.4 c -0.6,0.3 -1.4,0.4 -2.3,0.4 -1.5,0 -1.9,-0.7 -1.9,-1.8 h 4.5 c 0,-0.2 0,-0.5 0,-0.7 0,-2 -0.4,-3.7 -3,-3.7 -2.3,0.1 -3.2,1.5 -3.2,3.9 z m 3.2,-2.4 c 1.3,0 1.3,0.9 1.3,1.9 h -2.9 c 0.1,-1.1 0.4,-1.9 1.6,-1.9 z m 10.4,6 v -5.1 c 0,-1.4 -0.7,-2.3 -2.5,-2.3 -0.8,0 -1.6,0.2 -2.4,0.8 l -0.3,-0.6 h -1 v 7.3 h 1.6 v -5.6 c 0.4,-0.2 0.9,-0.4 1.7,-0.4 0.8,0 1.1,0.3 1.1,1.1 v 5 h 1.8 z m 5.5,-1.3 c -0.2,0 -0.4,0.1 -0.6,0.1 -0.8,0 -1.2,-0.3 -1.2,-1.1 v -3.6 h 2 v -1.4 h -2 V 128 l -1.6,0.5 v 1.7 l -1.3,0.4 v 1 h 1.3 v 3.8 c 0,1.6 0.9,2.3 2.6,2.3 0.2,0 0.7,0 0.9,-0.1 v -1.5 z m 5.5,-6 c -0.2,0 -0.5,-0.1 -0.8,-0.1 -0.9,0 -1.8,0.3 -2.3,0.8 l -0.3,-0.6 h -1 v 7.3 h 1.6 v -5.6 c 0.4,-0.2 1,-0.4 1.9,-0.4 0.3,0 0.6,0 0.8,0.1 v -1.5 z m 0.7,3.7 c 0,2.4 0.9,3.8 3.3,3.8 0.8,0 1.7,-0.1 2.6,-0.5 v -1.4 c -0.6,0.3 -1.4,0.4 -2.3,0.4 -1.5,0 -1.9,-0.7 -1.9,-1.8 h 4.5 c 0,-0.2 0,-0.5 0,-0.7 0,-2 -0.4,-3.7 -3,-3.7 -2.3,0.1 -3.2,1.5 -3.2,3.9 z m 3.2,-2.4 c 1.3,0 1.3,0.9 1.3,1.9 h -2.9 c 0.1,-1.1 0.4,-1.9 1.6,-1.9 z m 9.1,6.1 c 0.2,0 0.3,0 0.3,0 v -1.3 c -0.5,0 -0.6,-0.1 -0.6,-0.6 v -5.5 h -1.6 v 5.5 c 0,1.3 0.6,1.9 1.9,1.9 z m -2.2,-9.5 c 0,0.6 0.5,1.1 1.1,1.1 0.6,0 1.1,-0.5 1.1,-1.1 0,-0.6 -0.5,-1.1 -1.1,-1.1 -0.6,0 -1.1,0.5 -1.1,1.1 z m 9.8,9.4 v -5.1 c 0,-1.4 -0.7,-2.3 -2.5,-2.3 -0.8,0 -1.6,0.2 -2.4,0.8 l -0.3,-0.6 h -1 v 7.3 h 1.6 v -5.6 c 0.4,-0.2 0.9,-0.4 1.7,-0.4 0.8,0 1.1,0.3 1.1,1.1 v 5 h 1.8 z m 7.8,-6.3 c -1.4,-0.2 -2.1,-0.4 -2.1,-1.6 0,-0.9 0.6,-1.6 2.3,-1.6 1.1,0 2.1,0.2 2.9,0.6 v -1.6 c -0.6,-0.3 -1.5,-0.5 -3,-0.5 -3,0 -3.9,1.6 -3.9,3.2 0,2 1,2.7 3.7,3 1.5,0.2 2,0.5 2,1.7 0,1 -0.6,1.8 -2.5,1.8 -1.5,0 -2.5,-0.5 -3.1,-0.7 v 1.6 c 0.7,0.4 2.1,0.6 3.2,0.6 2.9,0 4.1,-1.4 4.1,-3.5 0,-2.2 -1.3,-2.7 -3.6,-3 z m 4.3,-1 2.8,7.4 h 1.3 l 2.8,-7.4 h -1.8 l -1.7,5.3 -1.7,-5.3 z m 11.4,2.3 v 0.4 l -1.6,0.1 c -1.6,0.1 -2.7,0.8 -2.7,2.4 0,1.2 0.6,2.3 2.5,2.3 0.8,0 1.6,-0.3 2.2,-0.8 l 0.3,0.6 h 1 v -4.9 c 0,-1.5 -0.6,-2.6 -2.9,-2.6 -0.9,0 -1.8,0.2 -2.4,0.4 v 1.4 c 0.6,-0.2 1.3,-0.4 2.3,-0.4 1,0.1 1.3,0.4 1.3,1.1 z m 0,1.5 v 1.9 c -0.5,0.3 -0.9,0.5 -1.6,0.5 -0.9,0 -1.1,-0.5 -1.1,-1.1 0,-0.8 0.4,-1 1.1,-1.1 z m 5.1,3.6 c 0.2,0 0.3,0 0.3,0 v -1.3 c -0.5,0 -0.6,-0.1 -0.6,-0.6 v -9.1 h -1.6 v 9.1 c 0,1.3 0.6,1.9 1.9,1.9 z m 5.1,-7.5 c -0.7,0 -1.4,0.2 -1.9,0.6 v -4 h -1.6 v 10.9 h 1 l 0.3,-0.6 c 0.6,0.5 1.4,0.8 2.4,0.8 2.1,0 2.9,-1.4 2.9,-3.8 -0.2,-2.5 -1,-3.9 -3.1,-3.9 z m -0.4,1.4 c 1.4,0 1.6,1.1 1.6,2.4 0,1.4 -0.2,2.4 -1.6,2.4 -0.8,0 -1.3,-0.3 -1.6,-0.4 v -4 c 0.4,-0.2 0.9,-0.4 1.6,-0.4 z m 8.6,1 v 0.4 l -1.6,0.1 c -1.6,0.1 -2.7,0.8 -2.7,2.4 0,1.2 0.6,2.3 2.5,2.3 0.8,0 1.6,-0.3 2.2,-0.8 l 0.3,0.6 h 1 v -4.9 c 0,-1.5 -0.6,-2.6 -2.9,-2.6 -0.9,0 -1.8,0.2 -2.4,0.4 v 1.4 c 0.6,-0.2 1.3,-0.4 2.3,-0.4 1,0.1 1.3,0.4 1.3,1.1 z m 0,1.5 v 1.9 c -0.5,0.3 -0.9,0.5 -1.6,0.5 -0.9,0 -1.1,-0.5 -1.1,-1.1 0,-0.8 0.4,-1 1.1,-1.1 z m 7.3,-3.8 c -0.2,0 -0.5,-0.1 -0.8,-0.1 -0.9,0 -1.8,0.3 -2.3,0.8 l -0.3,-0.6 h -1 v 7.3 h 1.6 v -5.6 c 0.4,-0.2 1,-0.4 1.9,-0.4 0.3,0 0.6,0 0.8,0.1 v -1.5 z m 3.6,-0.1 c -2.1,0 -2.9,1.4 -2.9,3.8 0,2.4 0.8,3.8 2.9,3.8 1,0 1.7,-0.3 2.4,-0.8 l 0.3,0.6 h 1 v -10.9 h -1.6 v 4 c -0.7,-0.3 -1.4,-0.5 -2.1,-0.5 z m 0.4,1.4 c 0.8,0 1.3,0.3 1.6,0.4 v 4 c -0.3,0.2 -0.8,0.4 -1.6,0.4 -1.4,0 -1.6,-1.1 -1.6,-2.4 0,-1.4 0.2,-2.4 1.6,-2.4 z" /></g></svg>