<?xml version="1.0" encoding="UTF-8" standalone="no"?>
<svg
   xmlns:dc="http://purl.org/dc/elements/1.1/"
   xmlns:cc="http://creativecommons.org/ns#"
   xmlns:rdf="http://www.w3.org/1999/02/22-rdf-syntax-ns#"
   xmlns:svg="http://www.w3.org/2000/svg"
   xmlns="http://www.w3.org/2000/svg"
   id="svg8"
   version="1.1"
   viewBox="0 0 150 150"
   height="150mm"
   width="150mm">
  <defs
     id="defs2" />
  <metadata
     id="metadata5">
    <rdf:RDF>
      <cc:Work
         rdf:about="">
        <dc:format>image/svg+xml</dc:format>
        <dc:type
           rdf:resource="http://purl.org/dc/dcmitype/StillImage" />
        <dc:title></dc:title>
      </cc:Work>
    </rdf:RDF>
  </metadata>
  <g
     transform="translate(306.29343,-75.5)"
     id="layer1">
    <path
       id="path4518"
       d="m -294.62175,225.21842 c -3.75113,-1.05435 -6.1683,-4.3672 -6.1683,-8.45397 0,-2.1385 0.46108,-3.38099 2.46777,-6.65007 0.92804,-1.51184 2.34359,-3.83907 3.14567,-5.17161 0.80208,-1.33255 2.71579,-4.48859 4.25268,-7.01342 1.53689,-2.52484 3.35036,-5.50872 4.02992,-6.63088 0.67958,-1.12215 4.58524,-7.54899 8.67925,-14.28187 4.09402,-6.73289 8.2926,-13.64884 9.33016,-15.36878 1.03757,-1.71995 2.88149,-4.76121 4.09761,-6.75839 1.21611,-1.99716 3.14671,-5.18054 4.29024,-7.07416 1.14351,-1.89363 2.85084,-4.70537 3.79407,-6.24832 0.94321,-1.54296 2.58355,-4.23994 3.6452,-5.99329 1.06165,-1.75336 2.73345,-4.50772 3.7151,-6.1208 8.95918,-14.72192 9.04223,-14.86645 8.92304,-15.53054 -0.0655,-0.36525 -0.55042,-2.67248 -1.07749,-5.12717 -0.52706,-2.4547 -1.02912,-4.85257 -1.1157,-5.3286 -0.14327,-0.78782 -0.46647,-1.05578 -3.60035,-2.98498 -1.89363,-1.165721 -3.78725,-2.343631 -4.20806,-2.617591 -14.02122,-9.128335 -23.67572,-13.453655 -38.63756,-17.310055 -2.45471,-0.6327 -4.50353,-1.18624 -4.55295,-1.2301 -0.14102,-0.12516 0.53843,-3.69374 0.72529,-3.80922 0.0919,-0.0568 1.42108,0.0572 2.95374,0.25327 1.53267,0.19608 4.45076,0.53818 6.48465,0.7602 9.00977,0.98353 18.13261,2.78175 23.96452,4.72371 9.46656,3.15227 16.4846,6.63005 29.33747,14.538176 1.89364,1.165116 5.16443,3.173719 7.26846,4.46358 2.10402,1.28986 5.37482,3.29756 7.26844,4.46157 1.89363,1.16399 3.95944,2.42355 4.59071,2.79902 0.63126,0.37545 1.89367,1.14648 2.80537,1.71338 0.91168,0.56691 4.98581,3.0669 9.05358,5.55555 4.06779,2.48865 7.81832,4.79537 8.3345,5.12603 l 0.93852,0.6012 -3.27472,5.42766 c -1.80108,2.98521 -4.50662,7.46822 -6.0123,9.96224 -1.50568,2.49401 -2.81622,4.58317 -2.91232,4.64257 -0.0961,0.0594 -1.37062,-0.66613 -2.83225,-1.61226 -1.46165,-0.94613 -3.51827,-2.26844 -4.57029,-2.93845 -1.05201,-0.67001 -4.0359,-2.5793 -6.63086,-4.24287 -8.03316,-5.14987 -9.59765,-6.12208 -9.83972,-6.11459 -0.12875,0.004 -0.5891,0.60649 -1.02299,1.33893 -0.4339,0.73242 -2.5114,4.14343 -4.61669,7.58001 -2.10528,3.43657 -4.31256,7.05167 -4.90507,8.03355 -2.79912,4.63855 -13.76256,22.56676 -14.42608,23.5906 -0.31817,0.49093 -1.09319,1.75335 -1.72227,2.80537 -0.62908,1.052 -2.09452,3.46208 -3.25652,5.3557 -1.16201,1.89362 -2.42077,3.95939 -2.79726,4.5906 -0.62282,1.0442 -5.62485,9.21833 -9.12974,14.91946 -2.61188,4.24854 -4.04776,6.59849 -8.72659,14.28188 -6.44789,10.58843 -7.37849,12.10378 -8.10429,13.19656 -0.91416,1.3764 -2.72237,2.96491 -4.03685,3.54637 -1.52118,0.67289 -4.19689,0.82876 -5.91874,0.3448 z m 67.79141,-4.51281 c -5.82114,-2.09853 -11.1864,-3.99771 -11.92281,-4.22041 -1.62627,-0.4918 -1.62102,-0.45041 -0.6016,-4.74107 1.2041,-5.06791 2.25046,-9.60518 2.69591,-11.69017 0.42503,-1.98934 0.63326,-2.33843 1.53991,-2.58148 1.66786,-0.44715 13.06967,-3.83223 18.20659,-5.40538 1.17671,-0.36035 2.17085,-0.62334 2.20919,-0.58439 0.0805,0.0818 1.71844,5.50071 6.57374,21.74864 2.85038,9.53857 2.68189,8.46685 1.38519,8.81111 -0.59737,0.1586 -2.76571,0.7945 -4.81851,1.41312 -2.05281,0.61862 -3.94644,1.11144 -4.20806,1.09515 -0.26162,-0.0163 -5.23842,-1.7466 -11.05955,-3.84512 z m 35.19461,-12.82996 v -15.17449 h 14.91945 14.91947 l -7.7e-4,10.01006 -7.6e-4,10.01007 -4.77566,5.16442 -4.77567,5.16443 h -10.143 -10.143 v -15.17449 z m -9.95744,-21.46068 c -1.74723,-1.47443 -3.44287,-2.94028 -3.76807,-3.25746 -0.54735,-0.53384 -0.62763,-0.99185 -1.08048,-6.16417 -0.26906,-3.07311 -0.56428,-6.41157 -0.65604,-7.41879 l -0.16687,-1.83132 2.88499,-3.39687 c 1.58675,-1.86828 3.07626,-3.6046 3.31001,-3.8585 0.40469,-0.43955 0.76547,-0.17285 7.54355,5.57634 3.91519,3.32086 7.44225,6.35066 7.8379,6.73287 l 0.71937,0.69492 -6.53029,7.68228 c -3.59165,4.22525 -6.61734,7.7361 -6.72377,7.80188 -0.10642,0.0657 -1.62306,-1.08676 -3.3703,-2.56118 z"
       style="fill:#000000;stroke-width:0.25503346" />
    <path
       id="path4522"
       d="m -91.833217,220.1989 -1.68758,-5.30104 -2.62835,-0.83352 c -1.4456,-0.45843 -3.81113,-1.43878 -5.256723,-2.17855 l -2.62837,-1.34505 -5.0308,2.61377 -5.03081,2.61377 -4.03967,-4.03965 -4.03965,-4.03965 2.61626,-5.05995 2.61625,-5.05995 -1.23973,-2.4264 c -0.68186,-1.33451 -1.6635,-3.688 -2.18145,-5.22998 l -0.94172,-2.80357 -5.30298,-1.69727 -5.30296,-1.69726 0.0959,-5.81118 0.0959,-5.81118 5.21774,-1.64053 5.21774,-1.6405 0.94017,-2.76628 c 0.51709,-1.52146 1.50693,-3.87019 2.19964,-5.21941 l 1.25947,-2.45315 -2.64132,-5.03702 -2.64132,-5.03703 4.07099,-4.071 4.07099,-4.07099 5.03387,2.61872 5.03386,2.61869 3.18651,-1.5143 c 1.752573,-0.83287 4.093403,-1.78352 5.201833,-2.11257 l 2.01531,-0.59828 1.74147,-5.50364 1.741451,-5.50364 h 5.70377 5.70378 l 1.61572,5.1691 c 0.88864,2.84301 1.64923,5.29699 1.6902,5.45329 0.0409,0.15629 1.24129,0.67708 2.6674,1.15732 1.426099,0.48023 3.773709,1.44894 5.216909,2.15267 l 2.62401,1.27952 5.05741,-2.57937 5.05741,-2.57937 4.04575,4.04574 4.04575,4.04576 -2.61195,5.05163 -2.61197,5.05165 1.14807,2.07335 c 0.63143,1.14035 1.58879,3.46087 2.12747,5.15672 l 0.9794,3.08337 5.51956,1.76808 5.51956,1.76808 v 5.69759 5.69759 l -5.44989,1.72754 -5.44989,1.72756 -1.05313,3.14198 c -0.57922,1.7281 -1.55263,4.07915 -2.16313,5.22456 l -1.10999,2.08258 2.60743,5.03587 2.60744,5.03588 -4.06293,4.06292 -4.06292,4.06293 -5.03703,-2.63817 -5.03704,-2.63819 -1.8925,1.08213 c -1.04087,0.59518 -3.40639,1.60183 -5.256719,2.23702 l -3.36422,1.1549 -1.60813,5.17722 -1.60814,5.17721 -5.81594,0.096 -5.81591,0.096 z m 13.688951,-17.83424 c 8.704549,-2.22624 15.876059,-9.39776 18.102309,-18.10231 0.92965,-3.63492 0.92965,-8.89483 0,-12.52975 -2.14466,-8.38554 -8.38284,-14.90607 -17.032569,-17.8035 -2.09129,-0.70055 -3.10933,-0.81149 -7.33461,-0.79938 -4.37125,0.0119 -5.21202,0.11669 -7.709871,0.95476 -3.98129,1.33588 -6.95483,3.18753 -9.985213,6.21792 -4.6971,4.69709 -6.96287,9.84205 -7.27471,16.51881 -0.28267,6.05236 1.17237,11.0486 4.62788,15.89107 3.24772,4.55128 8.559063,8.22701 13.915054,9.62995 3.55439,0.93105 9.10079,0.94085 12.69173,0.0224 z m 50.340309,-34.83084 -2.27009,-0.40023 -0.46348,-2.80359 c -0.25491,-1.54198 -0.59609,-2.85043 -0.75818,-2.90769 -0.16208,-0.0572 -1.34655,-0.7385 -2.63215,-1.51388 l -2.33745,-1.40978 -2.67745,0.90021 c -1.47259,0.49512 -2.79496,0.78212 -2.93858,0.63776 -0.14363,-0.14435 -0.96529,-1.20434 -1.82591,-2.35554 l -1.56478,-2.09309 1.68103,-2.38601 1.68103,-2.38599 -0.66076,-2.12303 c -0.36342,-1.16768 -0.66077,-2.48194 -0.66077,-2.92061 0,-0.65815 -0.46676,-1.0011 -2.67004,-1.96175 l -2.67005,-1.16415 0.23398,-2.30003 c 0.39994,-3.93143 0.25012,-3.74467 3.39652,-4.23414 2.58729,-0.40248 2.8302,-0.51325 3.3502,-1.52783 0.30835,-0.60164 1.02191,-1.76812 1.58567,-2.59219 l 1.02502,-1.49831 -0.98143,-2.77074 c -0.53978,-1.52391 -0.90494,-2.83252 -0.81147,-2.90803 0.0935,-0.0755 1.15872,-0.8864 2.3672,-1.80199 l 2.19723,-1.66472 2.32769,1.66101 2.32769,1.66101 2.19112,-0.58385 c 1.20511,-0.32112 2.52604,-0.58385 2.9354,-0.58385 0.59196,0 1.00503,-0.57852 2.01807,-2.82639 1.09189,-2.4228 1.37772,-2.80118 2.00177,-2.64982 0.40039,0.0971 1.70931,0.28496 2.9087,0.41744 2.44155,0.26967 2.28646,0.0605 2.90642,3.91982 0.25495,1.58706 0.57318,2.54074 0.84783,2.54074 0.24181,0 1.37481,0.60441 2.51776,1.34313 l 2.07808,1.34314 2.8341799,-0.95233 2.83418,-0.95233 1.77443,2.37113 1.77442,2.37113 -1.73102,2.40441 c -1.04826,1.45602 -1.64673,2.61283 -1.51731,2.93285 0.11755,0.29064 0.46321,1.57221 0.76814,2.84795 l 0.55441,2.3195 2.56606,1.26972 c 2.05771,1.01817 2.56566,1.4265 2.56404,2.06109 -0.003,0.96078 -0.62662,4.8661 -0.80645,5.04593 -0.0708,0.0709 -1.06122,0.29004 -2.20089,0.48717 -3.35506,0.58033 -3.59304,0.66225 -3.79782,1.30747 -0.10746,0.33858 -0.7589,1.47125 -1.44762,2.51703 l -1.25224,1.90141 0.91924,2.58935 c 0.50558,1.42413 0.87052,2.72753 0.81098,2.89645 -0.14681,0.41651 -4.1429499,3.49644 -4.5365499,3.49644 -0.17259,0 -1.29695,-0.71677 -2.49858,-1.59283 -1.51612,-1.10534 -2.39929,-1.53041 -2.88567,-1.3889 -0.3855,0.11219 -1.70078,0.46085 -2.92285,0.77488 l -2.22195,0.57095 -1.27177,2.57019 c -1.41103,2.85165 -1.19248,2.75946 -4.96518,2.09431 z m 9.51566,-12.56784 c 2.76933,-1.26907 4.97771,-3.42454 6.33432,-6.18258 1.05501,-2.14485 1.13893,-2.57412 1.13893,-5.82534 0,-3.16882 -0.0994,-3.71235 -1.02303,-5.59347 -1.35451,-2.75872 -3.56781,-4.90782 -6.4374,-6.25067 -2.03819,-0.95378 -2.73397,-1.09877 -5.32707,-1.11012 -2.62938,-0.0115 -3.25759,0.11695 -5.30381,1.08439 -2.97579,1.40697 -4.83638,3.10326 -6.18357,5.63759 -4.01028,7.54409 -0.4526,16.15936 7.80382,18.89775 2.2612,0.74996 6.62178,0.43129 8.99781,-0.65755 z m -52.01531,-18.04471 -3.416869,-0.88266 -0.003,-1.97492 c -0.005,-3.60056 -0.38077,-5.61798 -1.08653,-5.84198 -0.35393,-0.11234 -1.72305,-1.03835 -3.04252,-2.05783 l -2.39902,-1.85358 -3.30535,0.80849 c -1.81794,0.44468 -3.41303,0.81495 -3.54467,0.82282 -0.31709,0.019 -3.79072,-5.7447 -3.79072,-6.29001 0,-0.23352 1.03254,-1.57827 2.29454,-2.98833 l 2.29454,-2.56375 -0.53308,-2.74538 c -0.29318,-1.50997 -0.57665,-3.21052 -0.6299,-3.779 -0.0825,-0.88067 -0.50419,-1.27765 -2.85007,-2.68313 -1.514271,-0.90724 -2.904081,-1.80039 -3.088461,-1.98477 -0.31174,-0.31174 -0.16497,-1.09869 1.13637,-6.092703 l 0.33374,-1.28077 3.640311,-0.24812 3.64032,-0.24812 1.61233,-2.35974 c 0.88679,-1.29785 1.90903,-2.62823 2.27165,-2.9564 0.64451,-0.58328 0.64073,-0.66907 -0.16864,-3.82124 -0.45537,-1.77351 -0.82735,-3.46111 -0.82661,-3.75023 7e-4,-0.28991 1.41877,-1.36159 3.16166,-2.38945 l 3.16031,-1.86377 2.73903,2.46919 2.739029,2.4692 2.41542,-0.51172 c 1.32849,-0.28145 2.98961,-0.51447 3.69137,-0.51782 1.23299,-0.006 1.33873,-0.11218 3.14315,-3.16011 1.07268,-1.81191 2.09555,-3.15036 2.40378,-3.14539 0.2951,0.005 1.95586,0.36913 3.69058,0.80973 l 3.15404,0.80108 0.2703,3.65849 c 0.23808,3.22239 0.36293,3.72114 1.0474,4.18415 0.42741,0.28912 1.80394,1.2985 3.05896,2.24305 l 2.28185,1.71738 3.53474,-0.86811 3.53473,-0.86812 1.95409,3.16527 1.95409,3.16526 -1.21096,1.41742 c -0.66602,0.77958 -1.75354,2.06133 -2.4167,2.84834 l -1.20575,1.43094 0.51997,2.717663 c 0.28599,1.49471 0.51998,3.14236 0.51998,3.66144 0,0.81652 0.42529,1.19557 3.15403,2.81102 1.73472,1.02697 3.15404,1.94876 3.15404,2.04842 0,1.1283 -1.6068,6.68254 -2.02911,7.01409 -0.31985,0.2511 -1.55769,0.43806 -2.90034,0.43806 -3.36414,0 -4.38545,0.27428 -4.85449,1.30371 -0.22093,0.4849 -1.13209,1.83084 -2.0248,2.99098 l -1.62311,2.10935 0.76394,3.19366 c 0.42018,1.75651 0.76141,3.3664 0.75831,3.57753 -0.006,0.37762 -5.64625,4.00445 -6.20341,3.98862 -0.15704,-0.004 -1.46815,-1.04039 -2.91358,-2.30207 -2.14444,-1.87184 -2.78934,-2.25765 -3.50448,-2.09654 -0.48203,0.10861 -2.18862,0.38621 -3.79241,0.61695 l -2.91598,0.4195 -1.81507,3.07856 c -0.99828,1.69321 -1.97276,3.0672 -2.16551,3.05331 -0.19274,-0.0139 -1.88805,-0.42246 -3.76731,-0.90791 z m 11.81537,-14.30613 c 2.93359,-0.76411 5.31824,-2.14157 7.59373,-4.38642 6.61971,-6.5306 6.4203,-17.26978 -0.4386,-23.619903 -6.4306,-5.9536 -15.92561,-5.93033 -22.401839,0.0549 -6.81299,6.296433 -6.98766,17.049083 -0.38282,23.565013 4.285709,4.22801 10.038799,5.84261 15.629529,4.38642 z"
       style="fill:#000000;stroke-width:0.3504481" />
    <g
       transform="translate(-441.3911,25.807719)"
       id="g4550">
      <g
         transform="matrix(1.0107492,0,0,1.0107492,-0.13638819,-2.0912663)"
         id="g4555">
        <g
           transform="matrix(1.0372403,0,0,1.0372403,449.05364,-3.9847832)"
           id="g4563">
          <path
             style="fill:#000000;stroke-width:0.23264699"
             d="m 69.096727,68.619423 c -0.536963,-0.0649 -1.082893,-0.126294 -1.637894,-0.184067 -8.13905,-0.847238 -14.659082,-0.487064 -21.883865,1.208328 -1.96565,0.46126 -3.339331,2.276306 -3.308157,4.370758 0.0073,0.491424 0.516115,2.140708 1.130594,3.664814 2.10191,5.21343 7.834999,21.573858 7.617173,21.737072 -0.04134,0.03103 -0.970941,0.520543 -2.065697,1.087632 -2.730958,1.41466 -6.252273,3.56222 -8.947984,5.45746 -12.728452,8.94883 -21.387533,20.33246 -25.311223,33.2749 -0.645021,2.12766 -0.907497,3.49408 -1.432345,7.45752 -0.674082,5.09076 -0.725972,7.13002 -0.278998,10.91896 1.970031,16.69923 14.340842,29.96632 32.667266,35.03322 3.337193,0.92258 11.057719,1.92995 14.594227,1.90454 6.902642,-0.05 13.151006,-1.27894 19.129611,-3.7625 10.268481,-4.26561 18.446097,-12.75216 22.069395,-22.90283 1.26609,-3.54694 1.8151,-6.1224 2.2878,-10.73413 0.47999,-4.68277 0.40737,-7.96327 -0.27676,-12.48565 -1.78491,-11.79829 -8.344324,-24.53671 -17.957414,-34.87368 -2.423255,-2.60572 -2.363186,-2.54539 -4.791681,-4.77762 l -2.255004,-2.07297 2.154989,-3.211512 c 2.815946,-4.197144 5.508283,-7.926404 9.803693,-13.578725 l 3.501513,-4.607762 0.194347,-1.496383 C 94.441621,77.418868 93.795845,76.524721 90.341172,74.842053 83.270996,71.398376 77.15102,69.59345 69.096702,68.619617 Z m -1.44626,54.869457 c 3.624457,0.47075 6.649161,1.47613 9.074157,3.01594 2.427901,1.51753 4.383195,3.40457 5.866593,5.66137 l -3.811202,2.70304 c -0.292616,0.21149 -0.594984,0.39914 -0.907876,0.56263 -0.310011,0.14121 -0.725786,0.17828 -1.247298,0.11056 -0.365042,-0.0474 -0.692717,-0.18093 -0.982416,-0.40014 -0.263654,-0.21571 -0.560565,-0.48118 -0.890854,-0.79627 -0.330289,-0.31509 -0.696813,-0.65725 -1.099531,-1.02711 -0.402717,-0.36987 -0.89944,-0.72946 -1.49048,-1.07842 -0.564967,-0.34556 -1.253151,-0.66186 -2.064376,-0.94868 -0.81123,-0.28684 -1.790739,-0.50457 -2.938041,-0.65359 -3.076876,-0.39963 -5.788511,0.16701 -8.13527,1.69953 -2.346758,1.53252 -4.166443,4.00683 -5.458589,7.42289 l 19.634911,2.55013 -0.330254,2.54281 c -0.06664,0.51306 -0.376526,0.9602 -0.929896,1.34198 -0.524394,0.36288 -1.204246,0.49028 -2.03866,0.38192 L 52.30094,144.29156 c -0.07533,0.37583 -0.137975,0.75334 -0.187225,1.13254 l -0.14343,1.10436 -0.104295,0.80302 c -0.03476,0.26769 -0.05465,0.52557 -0.06043,0.77433 l 16.583728,2.15385 -0.325929,2.50951 c -0.06664,0.51305 -0.376591,0.9607 -0.929949,1.34248 -0.550487,0.35949 -1.229756,0.48646 -2.038089,0.38148 l -13.415693,-1.7424 c 0.231804,3.93155 1.254164,6.97951 3.067861,9.14309 1.84265,2.14469 4.302418,3.41654 7.379297,3.81616 1.877411,0.24383 3.404632,0.22698 4.58091,-0.0512 1.205246,-0.29712 2.194678,-0.66771 2.968235,-1.11163 0.799637,-0.44053 1.461231,-0.84251 1.985623,-1.20537 0.553381,-0.38177 1.11727,-0.53545 1.690934,-0.46095 0.286833,0.0372 0.52868,0.11394 0.725698,0.23021 0.199895,0.0941 0.40245,0.26788 0.608161,0.52141 l 3.759359,3.82281 c -2.138149,2.17205 -4.699469,3.72178 -7.683629,4.6498 -2.981255,0.90573 -6.33617,1.11663 -10.064923,0.63235 -3.076876,-0.39963 -5.784068,-1.19333 -8.122157,-2.38161 -2.309105,-1.20723 -4.259242,-2.73086 -5.849839,-4.57061 -1.590594,-1.83975 -2.8115,-3.97176 -3.663299,-6.39604 -0.825727,-2.42089 -1.290864,-5.06731 -1.395186,-7.93889 l -4.967282,-0.64514 0.595354,-4.58396 4.536816,0.58923 c 0.0058,-0.24875 0.02616,-0.50658 0.06093,-0.77426 l 0.104297,-0.80303 0.143429,-1.10435 c 0.04925,-0.37921 0.111398,-0.75678 0.186729,-1.1326 l -4.536816,-0.58923 0.599677,-4.61726 5.20199,0.67562 c 0.95318,-2.6435 2.223326,-4.97399 3.811003,-6.99071 1.590574,-2.03901 3.42478,-3.70608 5.502096,-5.00141 2.07732,-1.2953 4.356119,-2.20153 6.836164,-2.71869 2.482928,-0.53946 5.119375,-0.62796 7.909424,-0.26561 z"
             id="path4520" />
          <g
             aria-label="ยง"
             transform="matrix(1.1161588,-0.14496372,0.11443074,0.8810679,0,0)"
             style="font-style:normal;font-weight:normal;font-size:24.90562248px;line-height:125%;font-family:Sans;letter-spacing:0px;word-spacing:0px;fill:#000000;fill-opacity:1;stroke:none;stroke-width:0.62264055px;stroke-linecap:butt;stroke-linejoin:miter;stroke-opacity:1"
             id="text4526-7">
            <path
               d="m 120.34261,92.834217 q -1.01615,1.793205 -2.9289,1.793205 -1.07592,0 -2.33117,-0.597735 -1.19547,-0.597735 -2.80935,-1.315017 -1.61389,-0.777055 -3.70596,-1.37479 -2.0323,-0.597735 -4.84165,-0.597735 -2.51049,0 -4.423242,0.597735 -1.912752,0.537961 -3.227769,1.554111 -1.255244,0.956376 -1.972526,2.271393 -0.657509,1.315017 -0.657509,2.809355 0,1.912752 1.374791,3.347311 1.434564,1.43457 3.765731,2.74959 2.331164,1.25524 5.260064,2.45071 2.98868,1.19547 6.0969,2.57026 3.10822,1.31502 6.03712,2.9289 2.98868,1.61389 5.31985,3.70596 2.33116,2.09207 3.70595,4.84165 1.43457,2.74958 1.43457,6.33599 0,4.84166 -2.2714,8.78671 -2.21161,3.88528 -7.17282,6.27622 2.68981,2.21162 4.36347,5.14052 1.73343,2.9289 1.73343,6.9935 0,4.42324 -1.61388,8.18897 -1.55411,3.70595 -4.66234,6.39576 -3.10822,2.74958 -7.71078,4.24392 -4.54278,1.55411 -10.520134,1.55411 -3.167996,0 -6.216445,-0.59773 -2.988675,-0.53796 -5.798029,-1.55411 -2.749581,-1.01615 -5.140521,-2.39094 -2.331167,-1.3748 -4.124372,-2.98868 l 3.466863,-5.61871 q 0.597735,-1.01615 1.494338,-1.55411 0.896602,-0.53796 2.271393,-0.53796 1.37479,0 2.57026,0.77705 1.255244,0.77706 2.928902,1.67366 1.673658,0.8966 4.004825,1.67366 2.331166,0.77706 5.857803,0.77706 4.901427,0 7.591237,-2.0323 2.74958,-2.0323 2.74958,-5.61871 0,-2.39094 -1.43457,-4.12437 -1.43456,-1.73344 -3.8255,-3.04845 -2.39094,-1.37479 -5.439388,-2.45072 -2.988675,-1.13569 -6.156671,-2.39094 -3.108222,-1.25524 -6.156671,-2.74958 -2.988675,-1.55411 -5.379615,-3.64618 -2.39094,-2.09207 -3.825504,-4.9612 -1.434564,-2.86913 -1.434564,-6.81418 0,-4.72211 2.450713,-8.42807 2.510488,-3.76573 7.591235,-5.97735 -2.749581,-2.33116 -4.483012,-5.49916 -1.733432,-3.22777 -1.733432,-7.770553 0,-3.765731 1.434564,-7.113047 1.494338,-3.407089 4.423239,-5.97735 2.928902,-2.570261 7.232594,-4.064598 4.303692,-1.554111 9.982172,-1.554111 6.33599,0 11.53629,2.092072 5.26007,2.092073 8.66716,5.499163 z M 89.678804,123.91644 q 0,2.51049 1.733431,4.36346 1.733432,1.79321 4.483013,3.28755 2.809355,1.43456 6.276222,2.80935 3.46686,1.31502 6.87395,2.86913 2.39094,-1.19547 3.46686,-2.98868 1.07592,-1.85297 1.07592,-4.00482 0,-2.63003 -1.67365,-4.42324 -1.67366,-1.85298 -4.36347,-3.34732 -2.68981,-1.49433 -6.0969,-2.80935 -3.347312,-1.31502 -6.694628,-2.86913 -2.689808,1.43457 -3.885278,3.168 -1.19547,1.67366 -1.19547,3.94505 z"
               style="font-style:normal;font-variant:normal;font-weight:bold;font-stretch:normal;font-size:119.5470047px;font-family:Lato;-inkscape-font-specification:'Lato Bold';fill:#000000;stroke-width:0.62264055px"
               id="path4557" />
          </g>
        </g>
      </g>
    </g>
  </g>
</svg>
